 http://img28.imageshack.us/img28/8601/paranormalq.jpg


Verenigde Staten
Horror / Mystery
85 minuten

geregisseerd door Henry Joost en Ariel Schulman
met Chloe Csengery, Jessica Tyler Brown en Katie Featherston

Achttien jaar voor de gebeurtenissen van deel 1 en 2 volgen we Katie en haar zus Kristi tijdens een logeerpartij bij hun grootmoeder. Hun dagelijkse bezigheden worden vastgelegd op film als herinnering voor de ouders en ook Katie en Kristi mogen van de camera gebruik maken. Katie en Kristi geraken in bizarre situaties en er wordt een pact wordt gesloten met de duivel omtrent Hunter...


Vertaald door Simply ReleaseS Toppers
Jesprulin en Markow87





Screenshots:
 
http://img828.imageshack.us/img828/9682/screenshot1ob.jpg
 
http://img811.imageshack.us/img811/3793/screenshot2ud.jpg
 
http://img593.imageshack.us/img593/2434/screenshot3yah.jpg
 
http://img827.imageshack.us/img827/6389/screenshot4jem.jpg



INFO;

Video
ID                                       : 0
Format                                   : MPEG-4 Visual
Format profile                           : Advanced Simple@L5
Format settings, BVOP                    : 1
Format settings, QPel                    : No
Format settings, GMC                     : No warppoints
Format settings, Matrix                  : Custom
Codec ID                                 : XVID
Codec ID/Hint                            : XviD
Duration                                 : 1h 18mn
Bit rate                                 : 1 124 Kbps
Width                                    : 720 pixels
Height                                   : 384 pixels
Display aspect ratio                     : 1.875
Frame rate                               : 29.970 fps
Color space                              : YUV
Chroma subsampling                       : 4:2:0
Bit depth                                : 8 bits
Scan type                                : Progressive
Compression mode                         : Lossy
Bits/(Pixel*Frame)                       : 0.136
Stream size                              : 632 MiB (90%)
Writing library                          : XviD 64

Audio
ID                                       : 1
Format                                   : MPEG Audio
Format version                           : Version 1
Format profile                           : Layer 3
Mode                                     : Joint stereo
Mode extension                           : MS Stereo
Codec ID                                 : 55
Codec ID/Hint                            : MP3
Duration                                 : 1h 18mn
Bit rate mode                            : Variable
Bit rate                                 : 106 Kbps
Nominal bit rate                         : 128 Kbps
Channel(s)                               : 2 channels
Sampling rate                            : 48.0 KHz
Compression mode                         : Lossy
Stream size                              : 59.3 MiB (8%)
Alignment                                : Aligned on interleaves
Interleave, duration                     : 24 ms (0.72 video frame)
Interleave, preload duration             : 491 ms
Writing library                          : LAME3.98r



 
http://www.imdb.com/title/tt1778304/ 
http://www.moviemeter.nl/film/79044




Deze film wordt u aangeboden door het DutchReleaseTeam.
Voor de reviews van de nieuwste films, muziek, series, games etc
ga dan eens naar http://www.hetmultimediacafe.be

DutchReleaseteam = Hardcoded Dutch Subs